<svg width="70" height="70" fill="none" xmlns="http://www.w3.org/2000/svg"><path d="M67.3163 48.3385L48.8468 29.7337l2.0498-10.0964a4.6548 4.6548 0 001.659.3185h.014c2.6081.0308 4.7473-2.0584 4.7783-4.6665.0309-2.6081-2.0585-4.7473-4.6666-4.7782-2.6081-.0308-4.7473 2.0584-4.7782 4.6665a4.719 4.719 0 00.2729 1.6387l-10.85 1.3242L19.6276.35A1.1664 1.1664 0 0018.804 0a1.1665 1.1665 0 00-.8167.3395l-3.3087 3.29c-.4554.4556-.4554 1.194 0 1.6497l1.7804 1.806C9.5616 19.768 11.8019 35.474 21.9703 45.7228c.0933.0893.2015.1615.3197.2135a6.7707 6.7707 0 00-.1144 1.197v13.5334h-14c-3.22.0038-5.8295 2.6133-5.8333 5.8333v2.3333c0 .6443.5224 1.1667 1.1667 1.1667h53.6666c.6443 0 1.1667-.5224 1.1667-1.1667V66.5c-.0038-3.22-2.6133-5.8295-5.8333-5.8333h-14v-5.9979a32.879 32.879 0 006.6686.7 32.4831 32.4831 0 0015.4-3.9013l1.7897 1.8002c.2171.2215.5135.3475.8237.35a1.1668 1.1668 0 00.8166-.3395l3.3087-3.29c.4554-.4556.4554-1.1941 0-1.6497zM50.9246 13.6348c.9137-.9088 2.3911-.9047 3.2998.0089.9088.9137.9047 2.3911-.0089 3.2998a2.3335 2.3335 0 01-1.646.679h-.007c-1.2886-.0067-2.328-1.0567-2.3213-2.3454a2.3341 2.3341 0 01.6879-1.6423h-.0045zm-2.7463 7.6662l-1.309 6.4435-2.5713-2.5865 3.8803-3.857zm-1.3253-1.9728l-4.2 4.1755-3.2492-3.2667 7.4492-.9088zM52.509 63c1.933 0 3.5 1.567 3.5 3.5v1.1667H4.6756V66.5c0-1.933 1.567-3.5 3.5-3.5H52.509zm-16.3334-4.6667v2.3334H24.509v-2.3334h11.6666zM24.509 56v-8.8667C24.509 44.303 27.1258 42 30.3423 42c3.2165 0 5.8333 2.303 5.8333 5.1333V56H24.509zm14-3.71v-5.1567c0-4.1171-3.6634-7.4666-8.1667-7.4666a8.3122 8.3122 0 00-7.1773 3.9071c-8.8763-9.3489-10.8751-23.2863-4.9845-34.753L58.872 49.7454A30.233 30.233 0 0138.509 52.29zm24.6948-1.4957L61.56 49.1412 18.7923 6.1157l-1.6508-1.6544 1.6508-1.645L36.15 20.272c.0081 0 .0128.0152.021.021l28.6883 28.8563-1.6555 1.645z" fill="#212121"/><path d="M30.3527 44.3333h-.0105c-1.9331-.0029-3.5024 1.5617-3.5053 3.4948-.0029 1.933 1.5617 3.5023 3.4948 3.5052h.0105c1.933.0029 3.5023-1.5617 3.5052-3.4947.0029-1.9331-1.5617-3.5024-3.4947-3.5053zm.8166 4.3272a1.1667 1.1667 0 01-.8271.3395c-.6443-.0034-1.1639-.5284-1.1606-1.1727a1.1669 1.1669 0 011.1606-1.1606c.6443.0033 1.1639.5283 1.1605 1.1726a1.1673 1.1673 0 01-.3439.8212h.0105z" fill="#212121"/></svg>