<svg width="70" height="70" fill="none" xmlns="http://www.w3.org/2000/svg"><path d="M69.9434 9.8964a1.168 1.168 0 00-.9414-.7934l-4.179-.6078-1.8702-3.787c-.392-.7981-1.6999-.7981-2.0919 0l-1.8702 3.787-4.1791.608a1.1694 1.1694 0 00-.9427.7933c-.1364.4224-.0234.8867.2952 1.1959l3.0252 2.9483-.7139 4.1627c-.0747.4375.105.8797.4632 1.1411a1.161 1.161 0 001.2296.0886l3.7381-1.9659 3.7381 1.9659c.1703.0898.3582.1341.5437.1341a1.1652 1.1652 0 001.1493-1.3639l-.7139-4.1628 3.0252-2.9482a1.1702 1.1702 0 00.2947-1.1959zm-5.3876 2.9027a1.1666 1.1666 0 00-.3348 1.0325l.4177 2.4372-2.1886-1.1503a1.1636 1.1636 0 00-.5438-.1342c-.1866 0-.3721.0443-.5437.1342l-2.1888 1.1503.4177-2.4372a1.168 1.168 0 00-.3348-1.0325l-1.7722-1.7266 2.4477-.3559a1.1664 1.1664 0 00.8786-.6382l1.0943-2.2167 1.0943 2.2167c.1703.3441.4982.5834.8786.6382l2.4477.3559-1.7699 1.7266zM57.1669 44.8923h-2.3334v2.3334h2.3334v-2.3334zM57.1669 49.5591h-2.3334v2.3334h2.3334v-2.3334zM59.5004 47.2257H57.167v2.3334h2.3334v-2.3334zM54.8339 47.2257h-2.3334v2.3334h2.3334v-2.3334zM49.0004 57.7259H46.667v2.3334h2.3334v-2.3334zM49.0004 62.3926H46.667v2.3334h2.3334v-2.3334z" fill="#2196F3"/><path d="M51.3334 60.0593H49v2.3334h2.3334v-2.3334zM46.6669 60.0593h-2.3334v2.3334h2.3334v-2.3334zM34.9999 53.0592h-2.3334v2.3334h2.3334v-2.3334zM34.9999 57.7259h-2.3334v2.3334h2.3334v-2.3334zM37.3334 55.3925H35v2.3334h2.3334v-2.3334zM32.6664 55.3925H30.333v2.3334h2.3334v-2.3334zM12.8329 13.3918h-2.3334v2.3334h2.3334v-2.3334zM12.8329 18.0587h-2.3334v2.3334h2.3334v-2.3334zM15.1664 15.7253H12.833v2.3334h2.3334v-2.3334zM10.4994 15.7253H8.166v2.3334h2.3334v-2.3334z" fill="#2196F3"/><path d="M54.0635 30.9738c-.6288-.8482-1.5516-1.3941-2.5993-1.5412-1.0524-.1493-2.0908.1271-2.9308.77l-2.7382 2.0988-.0012.0012-4.1512 3.0999-2.9704-1.183c5.2967-2.3765 8.9987-7.6745 8.9987-13.8253 0-8.3628-6.831-15.1668-15.2275-15.1668-8.3966 0-15.2275 6.804-15.2275 15.1668 0 3.0311.9065 5.8498 2.4501 8.2216l-6.0458-.0525h-.0105c-.0188 0-.0338.0093-.0513.0105a1.1426 1.1426 0 00-.3395.0677c-.028.0105-.0571.0164-.0839.0291-.014.0059-.0281.007-.042.014l-7.0724 3.4918c-.0013 0-.0024 0-.0024.0011l-4.1418 1.9918a.8978.8978 0 00-.1377.077C.088 35.3452-.4743 37.5036.43 39.2676c.4819.938 1.302 1.6288 2.31 1.9449a3.9557 3.9557 0 001.1796.1808c.6335 0 1.2612-.1551 1.8363-.4619l3.0357-1.6147 4.9526-2.5574 2.9681-.0175L4.8084 48.5884c-.001.0012-.0023.0012-.0035.0023l-2.9284 2.9167c-.6918.6884-1.0722 1.6018-1.0722 2.5761 0 .973.3804 1.8888 1.0722 2.5784.7105.707 1.645 1.0617 2.5795 1.0617.9357 0 1.869-.3547 2.5818-1.0617l2.8747-2.8631 3.8081-2.8432 1.9706 1.9623-3.8537 3.8373c-.0011.0012-.0023.0012-.0035.0023l-2.9284 2.9166c-.6919.6884-1.0722 1.6019-1.0722 2.5761 0 .9731.3803 1.8888 1.0722 2.5785.7105.7069 1.6462 1.0616 2.5807 1.0616.9345 0 1.8702-.3547 2.5818-1.0616l2.9296-2.9167 4.6865-4.6667c.0012-.0012.0012-.0023.0023-.0036l2.2086-2.1875-.0082-.0082c.0139-.0139.0338-.0187.0478-.0338l11.3006-12.3773 7.5928 1.0804c.0548.0082.1096.0116.1644.0116.1413 0 .2777-.0338.4095-.084.0386-.0139.0723-.0326.1086-.0512.042-.0211.0862-.0327.126-.0595l7.0293-4.6667c.0257-.0175.0396-.0455.0641-.0641.028-.0222.063-.0315.0886-.0561l2.7813-2.6052c1.4472-1.356 1.6467-3.5773.4636-5.1663zM4.6602 38.8722c-.379.203-.8096.2438-1.2214.1132-.4084-.1271-.7397-.4061-.9334-.7829-.3523-.686-.1482-1.5214.469-1.9728l2.8735-1.3826.6918 2.0219.2906.8493-2.17 1.1539zm7.65-3.9981l-3.3869 1.75-.5587-1.6334-.4013-1.1737 4.4334-2.1888-.0865 3.2459zm33.03-14.4822c0 2.009-.4795 3.9038-1.3102 5.5989l-9.1468-4.1546c-.0957-1.2541-.7466-2.352-1.7243-3.0357l3.2025-10.632c5.2012 1.6545 8.9788 6.5067 8.9788 12.2234zm-25.7883 0c0-7.076 5.7844-12.8336 12.8941-12.8336.5531 0 1.0943.0467 1.6299.1143l-3.1326 10.3988c-.0419-.0013-.0816-.0129-.1248-.0129-2.2588 0-4.0963 1.8317-4.0963 4.0834s1.8375 4.0835 4.0963 4.0835c1.519 0 2.8315-.8388 3.5397-2.0663l8.4491 3.8385c-2.3509 3.164-6.1135 5.2279-10.3614 5.2279-7.1096 0-12.894-5.7576-12.894-12.8336zm13.0295 1.75c0 .9649-.7911 1.7501-1.7629 1.7501-.9718 0-1.7629-.7852-1.7629-1.7501 0-.9648.7911-1.75 1.7629-1.75.9718 0 1.7629.7852 1.7629 1.75zM5.3918 55.0075c-.5168.5121-1.3534.511-1.869.0012-.2485-.2486-.385-.5763-.385-.9252 0-.3477.1365-.6755.385-.9216l2.1046-2.0967 1.862 1.854-2.0976 2.0883zm7.0304 8.1668c-.5168.5122-1.3545.5134-1.8702.0013-.2486-.2486-.3851-.5763-.3851-.9252 0-.3477.1365-.6756.3851-.9217l2.1059-2.0977.8809.8763.9823.9777-2.0989 2.0893zm7.6161-7.5881c-.0012.0011-.0023.0011-.0035.0023l-3.8606 3.8501-.8809-.8763-.9823-.9777 3.857-3.8395v-.0011c.0012-.0012.0023-.0012.0035-.0023.0875-.0875.1424-.1925.1961-.2963.0152-.0303.0443-.056.0572-.0875.0362-.0898.0419-.1866.056-.2812.007-.0538.0304-.1038.0304-.1588 0-.0782-.0281-.1539-.0443-.231-.014-.07-.014-.1412-.0409-.2088-.0443-.1096-.1202-.2064-.1995-.301-.0221-.0257-.0303-.0584-.0548-.0829h-.0012c-.0013-.0011-.0013-.0036-.0024-.0046l-3.5152-3.5001c-.0373-.0373-.0852-.0525-.1272-.0839-.0617-.0479-.1212-.0922-.1901-.1261-.0665-.0327-.1342-.0525-.2042-.0712-.0746-.0211-.1469-.0374-.2251-.0432-.0713-.0047-.1377.0023-.2088.0105-.0782.0093-.1516.0198-.2275.0443-.0736.0234-.1388.0595-.2065.098-.0432.0245-.0921.0327-.133.063l-3.8792 2.8958-1.9705-1.9624 5.2477-5.2197 9.5389 9.3814-2.0291 2.0102zm14.9161-15.349c-.0337-.0046-.0653.0082-.0991.0059a1.1465 1.1465 0 00-.2519.0152c-.0665.0116-.1295.0245-.1926.0466-.0746.0257-.1423.0607-.2112.1027a1.1243 1.1243 0 00-.182.1341c-.028.0245-.0618.0362-.0875.0641L23.6527 51.8621l-9.4677-9.3114 6.1975-6.1648c.4562-.455.4585-1.1935.0035-1.6509-.2298-.2298-.532-.343-.8341-.3418v-.0011l-4.8535.0292.0607-3.5164 6.7901.0584c2.7674 2.8304 6.6268 4.5956 10.8968 4.5956.9567 0 1.8901-.0991 2.7988-.2684.0875.07.1738.1413.2836.1856l5.2711 2.1.3336 1.659.3897 1.9366-6.5684-.9345zm8.84.3897l-.6848-3.4079 3.164-2.3626.8284 1.099 1.2425 1.6497-4.5501 3.0218zm8.2111-6.1928l-1.8329 1.7174-2.037-2.7044 1.8188-1.3941c.3394-.2613.7677-.3675 1.1877-.3127.4223.0595.7957.28 1.05.6218.4737.6382.3932 1.5284-.1866 2.072z" fill="#212121"/><path d="M29.7547 40.5651l-4.6878-4.6667c-.4538-.4538-1.1912-.4538-1.6462 0l-4.6866 4.6667a1.1722 1.1722 0 00-.343.8271c0 .3104.1225.6079.343.8272l4.6866 4.6667c.2275.2263.5262.3395.8237.3395s.5961-.1132.8225-.3395l4.6878-4.6667a1.1712 1.1712 0 00.3441-.8272c0-.3103-.1237-.6078-.3441-.8271zm-5.5103 3.8477l-3.0334-3.0206 3.0334-3.0205 3.0345 3.0205-3.0345 3.0206zM37.547 11.0923l-.5636 2.2658c.1552.0385 3.8011.9882 3.8011 4.7006h2.3334c-.0001-4.4126-3.6436-6.4869-5.5709-6.9664zM43.1176 20.3919h-2.3334v2.3334h2.3334v-2.3334z" fill="#212121"/></svg>