<svg width="59" height="47" fill="none" xmlns="http://www.w3.org/2000/svg"><path d="M4.4876 39.2777c.23.2856.3524.6434.346 1.0106a1.6047 1.6047 0 01-.1232.6996 1.5986 1.5986 0 01-.4129.577 2.3178 2.3178 0 01-1.5582.4662H0v-6.4049h2.6832a2.2838 2.2838 0 011.4866.4255c.1732.1456.3105.3297.4008.5376.0903.208.1313.4342.1196.6608a1.4873 1.4873 0 01-.3116.9794 1.4548 1.4548 0 01-.8165.5006c.3634.0666.6914.2606.9255.5476zm-3.213-.9669h1.1469a1.0843 1.0843 0 00.7292-.2128.7598.7598 0 00.1958-.284.7634.7634 0 00.0504-.3418.7885.7885 0 00-.0516-.3403.7846.7846 0 00-.1915-.2854 1.1055 1.1055 0 00-.751-.2159H1.2746v1.6802zM3.263 40.767a.7944.7944 0 00.2114-.2935.7979.7979 0 00.0597-.3573.8078.8078 0 00-.2774-.6571 1.1809 1.1809 0 00-.779-.2315h-1.203v1.7616h1.2185a1.2057 1.2057 0 00.7698-.2222zM9.9725 42.0312L8.4796 39.528h-.561v2.5032h-1.284v-6.405h2.4309a2.3905 2.3905 0 011.6922.5444 2.049 2.049 0 01.1807 2.6503 1.971 1.971 0 01-1.1593.6508l1.5894 2.5595H9.9724zM7.9187 38.655H8.969c.7292 0 1.0938-.3233 1.0938-.9699a.9553.9553 0 00-.0587-.3881.9546.9546 0 00-.2093-.3316 1.1344 1.1344 0 00-.8258-.2597H7.9063l.0124 1.9493zM16.9908 40.7421h-2.5586l-.4519 1.2891H12.634l2.3498-6.333h1.4554l2.3404 6.333h-1.3463l-.4425-1.2891zm-.3428-.97l-.9349-2.7034-.935 2.7034h1.8699zM25.7759 42.0312h-1.2746l-2.8577-4.3555v4.3555h-1.2715v-6.405h1.2715l2.8577 4.3806v-4.3806h1.2746v6.405zM33.0497 40.4981a2.7565 2.7565 0 01-1.1531 1.1295 3.7426 3.7426 0 01-1.7919.4037h-2.2688v-6.405h2.2688a3.8157 3.8157 0 011.7919.3943 2.7096 2.7096 0 011.1531 1.117 3.7351 3.7351 0 01.3991 1.6802 3.7352 3.7352 0 01-.3991 1.6803zm-1.4585-.1533a2.3524 2.3524 0 00.5638-1.5285c0-.5608-.2-1.103-.5638-1.5285a2.2103 2.2103 0 00-1.5956-.5445h-.885v4.1459h.885a2.2102 2.2102 0 001.5956-.5444zM17.7886 0s16.4515 6.236 16.1025 15.2599v15.263s-16.4391-6.2391-16.0963-15.263L17.7886 0zM48.5476 26.9497a22.485 22.485 0 0110.4525-3.8673v-4.778c-4.3227 1.6728-7.9897 4.7058-10.4525 8.6453z" fill="#AFB1B8"/><path d="M46.6809 28.3889c2.543-5.1412 6.9517-9.1085 12.3192-11.0859V3.5356s-23.4293 8.8831-22.9338 21.7337v21.7306s1.044-.3974 2.6864-1.1421c0-.6946 0-1.3955.0748-2.0995.4849-5.9658 3.3097-11.4942 7.8534-15.3694z" fill="#AFB1B8"/><path d="M44.4525 36.4616a22.5076 22.5076 0 01.8196-4.4494c-2.8292 3.3466-4.5425 7.4994-4.899 11.8744-.0343.413-.053.826-.0623 1.2516 1.3307-.6415 2.8796-1.4425 4.5063-2.3843a22.5775 22.5775 0 01-.3646-6.2923zM45.3843 36.5398a21.5858 21.5858 0 00.2898 5.6979c6.4012-3.8455 13.5939-9.7874 13.3165-16.9684v-.6257c-4.5734.5137-8.8522 2.521-12.179 5.7134a21.4957 21.4957 0 00-1.4273 6.1828z" fill="#AFB1B8"/></svg>