<svg width="70" height="70" fill="none" xmlns="http://www.w3.org/2000/svg"><g clip-path="url(#clip0)"><path d="M32.6497 32.7351h2.3321v10.4945h-2.3321V32.7351zM41.978 37.3993h2.3321v5.8303H41.978v-5.8303zM23.321 40.8975h2.3322v2.3321H23.321v-2.3321zM16.3247 39.7314h2.3321v3.4981h-2.3321v-3.4981z" fill="#2196F3"/><path d="M3.4982 61.8865h55.9707c1.9318 0 3.4981-1.5663 3.4981-3.4982v-4.6642c0-1.9319-1.5663-3.4982-3.4981-3.4982h-1.1661V21.1468l6.6234-6.2744c1.5373.7579 3.398.2978 4.404-1.0909 1.0067-1.3881.8655-3.2994-.3336-4.5247-1.1991-1.2253-3.1065-1.408-4.5168-.4327-1.4097.9759-1.9108 2.8257-1.1865 4.3795l-4.9905 4.7309v-2.6903c0-1.9318-1.5663-3.4981-3.4982-3.4981H8.1624c-1.9319 0-3.4982 1.5663-3.4982 3.4981v34.9817h-1.166C1.5663 50.2259 0 51.7922 0 53.7241v4.6642c0 1.9319 1.5663 3.4982 3.4982 3.4982zM66.4652 10.58c.6439 0 1.166.5221 1.166 1.1661 0 .6439-.5221 1.166-1.166 1.166-.644 0-1.1661-.5221-1.1661-1.166 0-.644.5221-1.1661 1.1661-1.1661zM6.9963 15.2442c0-.6439.5221-1.166 1.166-1.166h46.6423c.644 0 1.1661.5221 1.1661 1.166v4.8971l-2.3321 2.216v-4.781c0-.6439-.5221-1.166-1.1661-1.166h-41.978c-.644 0-1.166.5221-1.166 1.166v29.1514c0 .644.522 1.1661 1.166 1.1661h41.978c.644 0 1.1661-.5221 1.1661-1.1661V25.5651l2.3321-2.2097v26.8705H6.9963V15.2442zM17.4908 30.403c-1.5777-.0046-2.9629 1.0465-3.3825 2.5672-.4197 1.5208.23 3.1338 1.5868 3.9389 1.3562.8051 3.0842.6029 4.2178-.4942l4.0533 2.0337a1.1658 1.1658 0 001.3921-.2681l8.6162-9.6934 8.4698 6.3466a1.1668 1.1668 0 001.5009-.0859l7.3613-6.973v17.7869H11.6606V18.7424h39.6459v5.8195l-8.2501 7.8128-8.541-6.4031c-.4851-.3632-1.1678-.2949-1.5709.1577l-8.7346 9.8278-3.2653-1.6329a3.304 3.304 0 00.0444-.4231c0-1.9318-1.5663-3.4981-3.4982-3.4981zm1.1661 3.4981c0 .644-.5221 1.1661-1.1661 1.1661-.6439 0-1.166-.5221-1.166-1.1661 0-.6439.5221-1.166 1.166-1.166.644 0 1.1661.5221 1.1661 1.166zm6.9963 18.6569h11.6606v1.1661c0 .6439-.5221 1.166-1.1661 1.166h-9.3284c-.644 0-1.1661-.5221-1.1661-1.166V52.558zm-23.321 1.1661c0-.644.522-1.1661 1.166-1.1661H23.321v1.1661c0 1.9318 1.5663 3.4982 3.4982 3.4982h9.3284c1.9319 0 3.4982-1.5664 3.4982-3.4982V52.558h19.823c.6439 0 1.166.5221 1.166 1.1661v4.6642c0 .644-.5221 1.1661-1.166 1.1661H3.4982c-.644 0-1.166-.5221-1.166-1.1661v-4.6642z" fill="#212121"/></g><defs><clipPath id="clip0"><path fill="#fff" d="M0 0h70v70H0z"/></clipPath></defs></svg>