<svg width="44" height="44" fill="none" xmlns="http://www.w3.org/2000/svg"><g clip-path="url(#clip0)" fill="#AFB1B8"><path d="M31.9951 32.0001v-.0008h.005v-7.335c0-3.5884-.7725-6.3525-4.9675-6.3525-2.0167 0-3.37 1.1066-3.9225 2.1558h-.0584v-1.8208h-3.9775v13.3525h4.1417v-6.6117c0-1.7408.33-3.4242 2.4858-3.4242 2.1242 0 2.1559 1.9867 2.1559 3.5359v6.5008h4.1375zM12.3301 18.6475h4.1466V32h-4.1466V18.6475zM14.4017 12C13.0758 12 12 13.0758 12 14.4017c0 1.3258 1.0758 2.4241 2.4017 2.4241 1.3258 0 2.4016-1.0983 2.4016-2.4241C16.8025 13.0758 15.7267 12 14.4017 12z"/></g><defs><clipPath id="clip0"><path fill="#fff" d="M12 12h20v20H12z"/></clipPath></defs></svg>