<!-- Generated by IcoMoon.io -->
<svg version="1.1" xmlns="http://www.w3.org/2000/svg" width="40" height="32" viewBox="0 0 40 32">
<title>brand-logo</title>
<path fill="#afb1b8" d="M3.055 26.742c0.157 0.194 0.24 0.438 0.236 0.688 0.001 0.016 0.001 0.035 0.001 0.053 0 0.153-0.031 0.298-0.088 0.43l0.003-0.007c-0.066 0.155-0.161 0.286-0.28 0.392l-0.001 0.001c-0.262 0.2-0.594 0.321-0.954 0.321-0.038 0-0.075-0.001-0.112-0.004l0.005 0h-1.865v-4.361h1.827c0.031-0.002 0.067-0.003 0.103-0.003 0.341 0 0.657 0.11 0.913 0.296l-0.004-0.003c0.118 0.099 0.211 0.224 0.273 0.366s0.089 0.296 0.081 0.45c0.001 0.014 0.001 0.029 0.001 0.045 0 0.235-0.080 0.452-0.215 0.624l0.002-0.002c-0.139 0.169-0.33 0.291-0.549 0.34l-0.007 0.001c0.247 0.045 0.471 0.177 0.63 0.373zM0.868 26.084h0.781c0.016 0.001 0.035 0.002 0.055 0.002 0.167 0 0.32-0.055 0.444-0.148l-0.002 0.001c0.057-0.052 0.103-0.117 0.132-0.19l0.001-0.003c0.023-0.056 0.036-0.122 0.036-0.19 0-0.015-0.001-0.030-0.002-0.044l0 0.002c0.001-0.011 0.001-0.024 0.001-0.037 0-0.070-0.013-0.137-0.038-0.198l0.001 0.004c-0.030-0.076-0.074-0.141-0.13-0.194l-0-0c-0.124-0.093-0.281-0.149-0.45-0.149-0.022 0-0.043 0.001-0.064 0.003l0.003-0h-0.768v1.144zM2.222 27.756c0.062-0.054 0.11-0.121 0.143-0.196l0.001-0.004c0.026-0.062 0.042-0.133 0.042-0.209 0-0.012-0-0.024-0.001-0.036l0 0.002c0.001-0.009 0.001-0.021 0.001-0.032 0-0.166-0.073-0.314-0.189-0.415l-0.001-0.001c-0.132-0.099-0.299-0.159-0.48-0.159-0.018 0-0.035 0.001-0.052 0.002l0.002-0h-0.819v1.199h0.83c0.014 0.001 0.031 0.001 0.047 0.001 0.179 0 0.344-0.057 0.479-0.154l-0.002 0.002zM6.79 28.617l-1.016-1.704h-0.382v1.704h-0.874v-4.361h1.655c0.034-0.003 0.073-0.004 0.113-0.004 0.396 0 0.759 0.142 1.041 0.377l-0.003-0.002c0.245 0.251 0.397 0.595 0.397 0.974 0 0.313-0.103 0.601-0.276 0.834l0.003-0.004c-0.199 0.228-0.472 0.388-0.781 0.442l-0.008 0.001 1.082 1.743h-0.951zM5.391 26.318h0.715c0.496 0 0.745-0.22 0.745-0.66 0.001-0.011 0.001-0.024 0.001-0.037 0-0.082-0.015-0.16-0.043-0.232l0.002 0.004c-0.033-0.088-0.082-0.163-0.143-0.226l0 0c-0.133-0.112-0.306-0.18-0.495-0.18-0.024 0-0.047 0.001-0.070 0.003l0.003-0h-0.724l0.008 1.327zM11.568 27.739h-1.742l-0.308 0.878h-0.917l1.6-4.312h0.991l1.593 4.312h-0.917l-0.301-0.878zM11.335 27.079l-0.637-1.841-0.637 1.841h1.273zM17.55 28.617h-0.868l-1.946-2.965v2.965h-0.866v-4.361h0.866l1.946 2.983v-2.983h0.868v4.361zM22.502 27.573c-0.182 0.33-0.45 0.593-0.775 0.764l-0.010 0.005c-0.335 0.174-0.732 0.276-1.153 0.276-0.024 0-0.047-0-0.071-0.001l0.003 0h-1.545v-4.361h1.545c0.020-0.001 0.044-0.001 0.068-0.001 0.42 0 0.816 0.099 1.167 0.276l-0.015-0.007c0.335 0.172 0.603 0.433 0.78 0.751l0.005 0.009c0.171 0.333 0.272 0.727 0.272 1.144 0 0 0 0 0 0v0c0 0 0 0 0 0 0 0.417-0.1 0.811-0.278 1.158l0.007-0.014zM21.509 27.469c0.239-0.278 0.384-0.642 0.384-1.040 0-0 0-0 0-0v0c0-0.382-0.136-0.751-0.384-1.041-0.263-0.232-0.611-0.374-0.992-0.374-0.033 0-0.066 0.001-0.098 0.003l0.004-0h-0.603v2.823h0.603c0.028 0.002 0.061 0.003 0.094 0.003 0.381 0 0.729-0.142 0.994-0.375l-0.002 0.001zM12.111 0s11.201 4.246 10.963 10.39v10.392s-11.193-4.248-10.959-10.392l-0.004-10.39zM33.054 18.349c2.005-1.402 4.428-2.345 7.049-2.627l0.067-0.006v-3.253c-2.943 1.139-5.44 3.204-7.117 5.886z"></path>
<path fill="#afb1b8" d="M31.783 19.329c1.731-3.5 4.733-6.202 8.388-7.548v-9.374s-15.952 6.048-15.614 14.797v14.795s0.711-0.271 1.829-0.778c0-0.473 0-0.95 0.051-1.429 0.33-4.062 2.253-7.826 5.347-10.464z"></path>
<path fill="#afb1b8" d="M30.266 24.825c0.093-1.118 0.291-2.149 0.586-3.138l-0.028 0.108c-1.926 2.279-3.093 5.106-3.335 8.085-0.023 0.281-0.036 0.562-0.042 0.852 0.906-0.437 1.961-0.982 3.068-1.623-0.191-0.909-0.3-1.953-0.3-3.023 0-0.444 0.019-0.884 0.056-1.318l-0.004 0.057zM30.9 24.878c-0.031 0.359-0.049 0.777-0.049 1.2 0 0.947 0.090 1.874 0.261 2.772l-0.015-0.092c4.358-2.618 9.255-6.664 9.067-11.553v-0.426c-3.114 0.35-6.027 1.716-8.292 3.89-0.501 1.234-0.847 2.664-0.968 4.157l-0.003 0.052z"></path>
</svg>
