<!-- Generated by IcoMoon.io -->
<svg version="1.1" xmlns="http://www.w3.org/2000/svg" width="47" height="32" viewBox="0 0 47 32">
<title>letter</title>
<path fill="#757575" d="M42.182 0h-37.818c-2.406 0-4.364 1.77-4.364 3.946v23.679c0 2.176 1.958 3.947 4.364 3.947h37.818c2.406 0 4.364-1.77 4.364-3.947v-23.679c0-2.176-1.958-3.946-4.364-3.946zM42.182 2.631c0.2 0 0.392 0.037 0.568 0.105l-0.011-0.004-19.466 15.259-19.467-15.259c0.166-0.064 0.357-0.102 0.558-0.102h37.818zM42.182 28.941h-37.818c-0.803 0-1.455-0.59-1.455-1.316v-22.113l19.411 15.215c0.274 0.214 0.614 0.321 0.953 0.321s0.679-0.107 0.953-0.321l19.411-15.215v22.113c0 0.726-0.652 1.316-1.455 1.316z"></path>
</svg>
