<!-- Generated by IcoMoon.io -->
<svg version="1.1" xmlns="http://www.w3.org/2000/svg" width="41" height="32" viewBox="0 0 41 32">
<title>pclogo</title>
<path d="M2.073 31.933h33.168c1.145 0 2.073-0.928 2.073-2.073v-2.764c0-1.145-0.928-2.073-2.073-2.073h-0.691v-17.232l3.925-3.718c0.911 0.449 2.014 0.176 2.61-0.646s0.513-1.955-0.198-2.681-1.841-0.834-2.677-0.256c-0.835 0.578-1.132 1.675-0.703 2.595l-2.957 2.804v-1.594c0-1.145-0.928-2.073-2.073-2.073h-27.64c-1.145 0-2.073 0.928-2.073 2.073v20.73h-0.691c-1.145-0-2.073 0.928-2.073 2.073v2.764c0 1.145 0.928 2.073 2.073 2.073zM39.387 1.529c0.382 0 0.691 0.309 0.691 0.691s-0.309 0.691-0.691 0.691c-0.382 0-0.691-0.309-0.691-0.691s0.309-0.691 0.691-0.691zM4.146 4.293c0-0.382 0.309-0.691 0.691-0.691h27.64c0.382 0 0.691 0.309 0.691 0.691v2.902l-1.382 1.313v-2.833c0-0.382-0.309-0.691-0.691-0.691h-24.876c-0.382 0-0.691 0.309-0.691 0.691v17.275c0 0.382 0.309 0.691 0.691 0.691h24.876c0.382 0 0.691-0.309 0.691-0.691v-12.541l1.382-1.309v15.923h-29.022v-20.73zM10.365 13.276c-0.935-0.003-1.756 0.62-2.004 1.521s0.136 1.857 0.94 2.334c0.804 0.477 1.828 0.357 2.499-0.293l2.402 1.205c0.090 0.046 0.196 0.073 0.309 0.073 0.205 0 0.389-0.089 0.516-0.231l0.001-0.001 5.106-5.744 5.019 3.761c0.114 0.086 0.258 0.138 0.415 0.138 0.184 0 0.351-0.072 0.475-0.189l-0 0 4.362-4.132v10.54h-23.494v-15.893h23.494v3.449l-4.889 4.63-5.061-3.794c-0.287-0.215-0.692-0.175-0.931 0.093l-5.176 5.824-1.935-0.968c0.013-0.073 0.023-0.159 0.026-0.247l0-0.004c0-1.145-0.928-2.073-2.073-2.073zM11.056 15.349c0 0.382-0.309 0.691-0.691 0.691s-0.691-0.309-0.691-0.691c0-0.382 0.309-0.691 0.691-0.691s0.691 0.309 0.691 0.691zM15.202 26.405h6.91v0.691c0 0.382-0.309 0.691-0.691 0.691h-5.528c-0.382 0-0.691-0.309-0.691-0.691v-0.691zM1.382 27.096c0-0.382 0.309-0.691 0.691-0.691h11.747v0.691c0 1.145 0.928 2.073 2.073 2.073h5.528c1.145 0 2.073-0.928 2.073-2.073v-0.691h11.747c0.382 0 0.691 0.309 0.691 0.691v2.764c0 0.382-0.309 0.691-0.691 0.691h-33.168c-0.382 0-0.691-0.309-0.691-0.691v-2.764z"></path>
</svg>
