<!-- Generated by IcoMoon.io -->
<svg version="1.1" xmlns="http://www.w3.org/2000/svg" width="21" height="32" viewBox="0 0 21 32">
<title>phone-hover</title>
<path fill="#2196f3" d="M18.133 0h-14.933c-1.764 0-3.2 1.299-3.2 2.895v25.082c0 1.596 1.436 2.895 3.2 2.895h14.933c1.764 0 3.2-1.299 3.2-2.895v-25.082c0-1.596-1.436-2.895-3.2-2.895zM3.2 1.929h14.933c0.589 0 1.067 0.433 1.067 0.966v20.258h-17.067v-20.258c0-0.533 0.478-0.966 1.067-0.966zM18.133 28.941h-14.933c-0.589 0-1.067-0.431-1.067-0.964v-2.895h17.067v2.895c0 0.533-0.478 0.964-1.067 0.964z"></path>
</svg>
