<!-- Generated by IcoMoon.io -->
<svg version="1.1" xmlns="http://www.w3.org/2000/svg" width="32" height="32" viewBox="0 0 32 32">
<title>twitter</title>
<path fill="#afb1b8" d="M23.273 11.49c-0.5 0.224-1.080 0.39-1.688 0.467l-0.031 0.003c0.618-0.371 1.083-0.945 1.306-1.627l0.006-0.021c-0.544 0.328-1.178 0.579-1.853 0.715l-0.038 0.006c-0.545-0.582-1.319-0.945-2.177-0.945-1.646 0-2.981 1.335-2.981 2.981 0 0.001 0 0.002 0 0.003v-0c0 0.236 0.020 0.464 0.070 0.68-2.479-0.121-4.673-1.309-6.147-3.119-0.256 0.432-0.407 0.952-0.407 1.508v0c0 1.033 0.531 1.948 1.324 2.478-0.496-0.014-0.958-0.148-1.362-0.375l0.015 0.008v0.033c0.001 1.439 1.017 2.64 2.37 2.927l0.020 0.003c-0.227 0.062-0.487 0.098-0.756 0.098-0.009 0-0.018-0-0.028-0h0.001c-0.014 0-0.030 0-0.047 0-0.183 0-0.362-0.019-0.534-0.054l0.017 0.003c0.386 1.181 1.483 2.049 2.786 2.078-1.006 0.793-2.292 1.271-3.69 1.271-0.003 0-0.005 0-0.008 0h0c-0.012 0-0.026 0-0.039 0-0.238 0-0.472-0.015-0.701-0.044l0.027 0.003c1.285 0.839 2.858 1.338 4.547 1.338 0.010 0 0.019-0 0.029-0h-0.002c5.487 0 8.487-4.545 8.487-8.486 0-0.131-0.004-0.259-0.011-0.385 0.59-0.425 1.087-0.938 1.481-1.526l0.014-0.021z"></path>
</svg>
