<!-- Generated by IcoMoon.io -->
<svg version="1.1" xmlns="http://www.w3.org/2000/svg" width="31" height="32" viewBox="0 0 31 32">
<title>unnamed-company</title>
<path fill="#afb1b8" d="M4.834 30.852c0.024 0 0.045 0.010 0.061 0.025v0l0.157 0.159c-0.122 0.129-0.272 0.232-0.441 0.302-0.198 0.076-0.411 0.114-0.625 0.109-0.009 0-0.020 0-0.031 0-0.2 0-0.391-0.037-0.568-0.105l0.011 0.004c-0.173-0.067-0.32-0.164-0.443-0.286l0 0c-0.122-0.123-0.219-0.27-0.283-0.433l-0.003-0.009c-0.063-0.163-0.1-0.351-0.1-0.548 0-0.006 0-0.013 0-0.019v0.001c-0-0.006-0-0.013-0-0.020 0-0.197 0.040-0.386 0.111-0.557l-0.004 0.010c0.069-0.165 0.172-0.315 0.305-0.442 0.133-0.124 0.293-0.222 0.469-0.287 0.175-0.064 0.376-0.101 0.586-0.101 0.007 0 0.014 0 0.021 0h-0.001c0.193-0.005 0.384 0.027 0.562 0.091 0.155 0.062 0.298 0.149 0.421 0.256l-0.131 0.17c-0.009 0.012-0.020 0.022-0.033 0.030l-0.001 0c-0.013 0.008-0.029 0.013-0.046 0.013-0.002 0-0.005-0-0.007-0l0 0c-0.021-0.001-0.041-0.008-0.058-0.019l0 0-0.070-0.046-0.098-0.057c-0.090-0.046-0.193-0.082-0.303-0.1l-0.006-0.001c-0.065-0.012-0.14-0.018-0.217-0.018-0.006 0-0.012 0-0.017 0h0.001c-0.004-0-0.009-0-0.014-0-0.151 0-0.296 0.028-0.429 0.079l0.008-0.003c-0.133 0.050-0.246 0.122-0.342 0.214l0-0c-0.098 0.099-0.173 0.214-0.221 0.34-0.051 0.129-0.081 0.278-0.081 0.434 0 0.005 0 0.011 0 0.016v-0.001c-0.002 0.155 0.025 0.309 0.080 0.455 0.048 0.125 0.122 0.24 0.218 0.339 0.090 0.091 0.201 0.163 0.325 0.21 0.128 0.049 0.265 0.073 0.404 0.072 0.080 0.001 0.16-0.004 0.239-0.015 0.13-0.014 0.253-0.056 0.362-0.12 0.059-0.036 0.11-0.073 0.157-0.113l-0.002 0.001c0.020-0.017 0.045-0.028 0.074-0.029h0zM9.362 30.052c0.002 0.192-0.034 0.382-0.106 0.562-0.069 0.172-0.169 0.317-0.294 0.437l-0.001 0c-0.129 0.122-0.283 0.22-0.454 0.283l-0.009 0.003c-0.177 0.064-0.382 0.101-0.596 0.101s-0.418-0.037-0.608-0.105l0.013 0.004c-0.347-0.127-0.619-0.389-0.755-0.721l-0.003-0.009c-0.067-0.167-0.106-0.361-0.106-0.564s0.039-0.397 0.11-0.574l-0.004 0.010c0.066-0.164 0.168-0.315 0.297-0.442 0.129-0.118 0.282-0.213 0.451-0.274l0.009-0.003c0.383-0.137 0.808-0.137 1.192 0 0.174 0.066 0.331 0.163 0.462 0.287 0.13 0.126 0.229 0.274 0.296 0.437 0.072 0.181 0.109 0.373 0.107 0.566zM8.95 30.052c0-0.007 0-0.016 0-0.024 0-0.154-0.027-0.301-0.078-0.437l0.003 0.009c-0.047-0.132-0.119-0.245-0.21-0.339l0 0c-0.091-0.092-0.202-0.164-0.325-0.211l-0.006-0.002c-0.279-0.099-0.587-0.099-0.866 0-0.254 0.097-0.45 0.296-0.54 0.545l-0.002 0.006c-0.099 0.295-0.099 0.61 0 0.904 0.044 0.126 0.117 0.241 0.212 0.338 0.091 0.093 0.205 0.165 0.331 0.212 0.28 0.097 0.587 0.097 0.866 0 0.126-0.047 0.239-0.119 0.331-0.212 0.094-0.098 0.165-0.213 0.21-0.338 0.053-0.145 0.078-0.299 0.075-0.452zM12.45 30.526l0.042 0.101c0.015-0.036 0.029-0.069 0.045-0.101s0.032-0.067 0.051-0.099l1.001-1.681c0.020-0.029 0.037-0.047 0.057-0.053s0.044-0.010 0.069-0.010c0.005 0 0.010 0 0.014 0l-0.001-0h0.296v2.734h-0.35v-2.095c-0.001-0.014-0.001-0.030-0.001-0.047s0.001-0.033 0.002-0.049l-0 0.002-1.007 1.704c-0.014 0.026-0.034 0.048-0.059 0.062l-0.001 0c-0.024 0.014-0.054 0.023-0.085 0.023-0 0-0.001 0-0.001 0h-0.056c-0.030 0-0.061-0.008-0.086-0.023s-0.046-0.036-0.059-0.062l-0-0.001-1.036-1.714v2.194h-0.339v-2.728h0.296c0.004-0 0.009-0 0.014-0 0.024 0 0.048 0.003 0.070 0.010l-0.002-0c0.024 0.011 0.043 0.029 0.055 0.052l0 0.001 1.023 1.682c0.018 0.028 0.036 0.060 0.050 0.094l0.001 0.004zM16.219 30.39v1.024h-0.392v-2.73h0.874c0.165-0.003 0.329 0.018 0.488 0.060 0.127 0.033 0.245 0.091 0.345 0.17 0.084 0.071 0.151 0.161 0.194 0.263l0.002 0.005c0.046 0.111 0.069 0.23 0.067 0.349 0 0.003 0 0.007 0 0.010 0 0.123-0.027 0.24-0.075 0.344l0.002-0.005c-0.050 0.109-0.122 0.2-0.21 0.272l-0.001 0.001c-0.098 0.080-0.214 0.142-0.34 0.179l-0.007 0.002c-0.152 0.046-0.312 0.067-0.472 0.064l-0.474-0.008zM16.219 30.097h0.475c0.103 0.002 0.206-0.012 0.303-0.041 0.084-0.026 0.157-0.066 0.221-0.118l-0.001 0.001c0.057-0.049 0.102-0.109 0.132-0.178l0.001-0.003c0.030-0.066 0.047-0.142 0.047-0.223 0-0.002 0-0.004-0-0.006v0c0.001-0.008 0.001-0.018 0.001-0.028 0-0.070-0.015-0.137-0.042-0.197l0.001 0.003c-0.033-0.074-0.079-0.136-0.137-0.186l-0.001-0.001c-0.13-0.093-0.291-0.149-0.466-0.149-0.021 0-0.042 0.001-0.063 0.002l0.003-0h-0.475v1.125zM21.486 31.418h-0.309c-0.002 0-0.003 0-0.005 0-0.031 0-0.059-0.010-0.082-0.026l0 0c-0.022-0.017-0.039-0.038-0.051-0.062l-0-0.001-0.267-0.661h-1.338l-0.277 0.661c-0.011 0.025-0.028 0.045-0.048 0.061l-0 0c-0.023 0.018-0.053 0.028-0.085 0.028-0.001 0-0.003-0-0.004-0h-0.309l1.176-2.734h0.408l1.192 2.733zM19.547 30.403h1.105l-0.466-1.112c-0.031-0.070-0.061-0.156-0.085-0.244l-0.003-0.013-0.045 0.143c-0.014 0.043-0.029 0.083-0.043 0.116l-0.462 1.111zM23.179 28.697c0.024 0.011 0.044 0.028 0.059 0.049l1.714 2.060v-2.122h0.35v2.733h-0.196c-0.002 0-0.005 0-0.007 0-0.026 0-0.051-0.006-0.074-0.016l0.001 0c-0.024-0.013-0.045-0.030-0.062-0.051l-0-0-1.714-2.059c0.002 0.030 0.002 0.062 0 0.094v2.031h-0.35v-2.733h0.208c0.024 0 0.048 0.004 0.070 0.013zM28.193 30.331v1.085h-0.392v-1.084l-1.083-1.646h0.35c0.003-0 0.005-0 0.008-0 0.028 0 0.054 0.009 0.076 0.023l-0-0c0.022 0.018 0.040 0.039 0.053 0.062l0.678 1.062c0.046 0.070 0.087 0.15 0.117 0.235l0.002 0.008 0.051-0.117c0.022-0.049 0.044-0.090 0.069-0.129l-0.002 0.004 0.668-1.069c0.015-0.022 0.032-0.041 0.051-0.058l0-0c0.021-0.017 0.049-0.028 0.079-0.028 0.002 0 0.004 0 0.006 0h0.355l-1.086 1.653zM12.256 24.097c0.171 0.021 0.343 0.037 0.518 0.051 2.644-1.092 4.881-2.879 6.43-5.138s2.344-4.889 2.284-7.563l-2.914-2.69c0.193 0.887 0.304 1.906 0.304 2.951 0 2.001-0.406 3.908-1.139 5.642l0.036-0.095c-1.116 2.709-3.027 5.078-5.518 6.842z"></path>
<path fill="#afb1b8" d="M11.215 23.972l0.078 0.015c2.663-1.758 4.693-4.213 5.827-7.048 0.642-1.548 1.014-3.346 1.014-5.232 0-1.287-0.174-2.533-0.498-3.716l0.023 0.098-4.151-3.832c1.678 3.149 2.354 6.674 1.949 10.164s-1.877 6.802-4.242 9.55zM25.292 14.606c-0.705 2.937-2.418 5.586-4.884 7.554-0.678 0.548-1.437 1.057-2.24 1.497l-0.080 0.040c2.008-0.545 3.854-1.508 5.394-2.814s2.735-2.924 3.493-4.725l-1.684-1.552z"></path>
<path fill="#afb1b8" d="M24.632 14.173l-2.397-2.213c-0.046 2.523-0.823 4.987-2.25 7.139s-3.453 3.911-5.866 5.095h0.012c0.537 0 1.074-0.030 1.608-0.088 2.255-0.85 4.248-2.202 5.799-3.934s2.613-3.794 3.093-5.998zM11.563 2.643l-2.859-2.643c-2.556 0.912-4.754 2.514-6.307 4.599-1.553 2.083-2.389 4.552-2.396 7.081 0.010 2.796 1.029 5.507 2.896 7.707s4.476 3.762 7.414 4.44c2.622-2.949 4.158-6.593 4.383-10.403s-0.872-7.586-3.131-10.781zM31.238 13.766c-0.011-3.317-1.442-6.494-3.982-8.838s-5.982-3.667-9.575-3.676c-0.007 0-0.016-0-0.024-0-1.732 0-3.392 0.305-4.93 0.865l0.1-0.032 17.506 16.16c0.572-1.323 0.905-2.863 0.905-4.481 0-0 0-0 0-0v0z"></path>
</svg>
